# xmcd
#
# Track frame offsets:
#	150
#	16497
#	29325
#	42540
#	64260
#	78670
#	93067
#	113820
#	128895
#	148050
#	159955
#	175420
#	186642
#	197460
#
# Disc length: 2781 seconds
#
# Revision: 1
# Processed by: cddbd v1.5.2PL0 Copyright (c) Steve Scherf et al.
# Submitted via: EZCDAudioConverter 8.0.2.1
#
DISCID=c30adb0e
DTITLE=JOÃO ROBERTO and ROBERTINHO - DETALHES COMO ESSES [CD GTCD 0008) GT MUSIK
DYEAR=2003
DGENRE=SERTANEJO
TTITLE0=DETALHES COMO ESSES (BY GILMAR SINISTRO)
TTITLE1=RESUMO DE VOCÊ (BY GILMAR SINISTRO)
TTITLE2=BARRIGUDO (BY GILMAR SINISTRO)
TTITLE3=O DESEMPREGADO (BY GILMAR SINISTRO)
TTITLE4=BONS AMIGOS (BY GILMAR SINISTRO)
TTITLE5=NOS BRAÇOS DA SAUDADE (BY GILMAR SINISTRO)
TTITLE6=SEM VOCÊ (BY GILMAR SINISTRO)
TTITLE7=GAIOLA DA INFELICIDADE (BY GILMAR SINISTRO)
TTITLE8=PORTA DO PASSADO (BY GILMAR SINISTRO)
TTITLE9=DESEJO E PAIXÂO (BY GILMAR SINISTRO)
TTITLE10=TE SUPLICO MEU AMOR NÃO SE VÁ (BY GILMAR SINISTRO)
TTITLE11=O VALOR DA MULHER (BY GILMAR SINISTRO)
TTITLE12=O PALCO CAIU (BY GILMAR SINISTRO)
TTITLE13=EU AMO (BY GILMAR SINISTRO)
EXTD=
EXTT0=
EXTT1=
EXTT2=
EXTT3=
EXTT4=
EXTT5=
EXTT6=
EXTT7=
EXTT8=
EXTT9=
EXTT10=
EXTT11=
EXTT12=
EXTT13=
PLAYORDER=
